# xmcd CD database file
#
# Track frame offsets:
#	150
#	10467
#	34188
#	50434
#	64727
#	81241
#	97092
#	112468
#	128333
#	142957
#
# Disc length: 2404 seconds
#
# Revision: 4
# Processed by: cddbd v1.5.1PL2 Copyright (c) Steve Scherf et al.
# Submitted via: CDex 1.51
#
DISCID=8a09620a
DTITLE=Emme Packer - Better Luck Next Time
DYEAR=2005
DGENRE=New Age
TTITLE0=Hey City
TTITLE1=The Key
TTITLE2=She's Sorry
TTITLE3=High Tides
TTITLE4=Come Down
TTITLE5=Probably Just Anxious
TTITLE6=Wait Awhile
TTITLE7=He'll Save Me
TTITLE8=Faith She Cries
TTITLE9=Maybe Not
EXTD=YEAR: 2005
EXTT0=
EXTT1=
EXTT2=
EXTT3=
EXTT4=
EXTT5=
EXTT6=
EXTT7=
EXTT8=
EXTT9=
PLAYORDER=
